<svg xmlns="http://www.w3.org/2000/svg" width="640" height="640" viewBox="0 0 640 640" version="1.1">
	<path d="M 304.809 123.072 C 303.539 123.387, 299.505 123.442, 295.844 123.195 C 292.183 122.947, 287.008 123.095, 284.344 123.523 C 280.128 124.201, 279.824 124.399, 282 125.051 C 283.375 125.463, 286.750 125.852, 289.500 125.916 C 292.250 125.979, 295.175 126.467, 296 127 C 297.333 127.862, 297.333 127.973, 296 128.003 C 293.042 128.069, 274.373 130.967, 268 132.349 C 260.757 133.920, 252.276 136.280, 244 139.030 C 173.104 162.582, 115.667 220.554, 82.532 302 C 79.959 308.325, 77.189 315.025, 76.377 316.888 C 74.919 320.234, 74.970 320.400, 80.563 330.388 C 101.608 367.969, 129.598 398.282, 159.638 416.025 C 179.941 428.017, 204.464 435.034, 225.871 434.977 C 237.472 434.946, 259.850 431.579, 261.868 429.561 C 263.282 428.146, 262.728 428, 255.964 427.997 C 246.684 427.994, 232.363 426.280, 225.608 424.365 C 222.799 423.569, 218.797 422.480, 216.716 421.946 C 214.635 421.412, 212.160 420.546, 211.216 420.022 C 210.272 419.499, 207.250 418.139, 204.500 417 C 201.750 415.861, 198.793 414.542, 197.928 414.068 C 197.064 413.593, 193.914 411.933, 190.928 410.378 C 179.554 404.453, 163.944 392.897, 149.832 379.956 C 142.924 373.620, 141.002 371.273, 141.007 369.178 C 141.016 365.921, 147.600 348.055, 149.516 346.090 C 150.692 344.884, 151.926 345.789, 158.048 352.345 C 164.913 359.695, 182.104 375.214, 190.500 381.639 C 211.073 397.383, 231.607 407.756, 253 413.210 C 264.505 416.143, 291.296 416.441, 300.500 413.738 C 315.460 409.344, 326.846 404.654, 334.448 399.755 C 341.947 394.922, 350.244 389.053, 354.485 385.581 C 360.986 380.259, 367.189 373.586, 366.012 373.181 C 365.501 373.005, 362.252 374.832, 358.792 377.241 C 355.331 379.650, 351.825 381.937, 351 382.324 C 350.175 382.710, 347.475 384.176, 345 385.583 C 340.590 388.088, 335.496 389.963, 323.519 393.488 C 315.362 395.888, 295.305 395.924, 285 393.557 C 261.766 388.219, 238.766 375.913, 215.251 356.238 C 197.348 341.259, 168 309.478, 168 305.070 C 168 303.868, 169.185 300.773, 170.634 298.192 C 172.083 295.612, 174.849 290.585, 176.781 287.021 C 199.698 244.750, 233.197 210.352, 263.054 198.432 C 276.558 193.040, 283.542 191.706, 298.500 191.660 C 314.416 191.611, 322.059 193.273, 335.113 199.619 C 349.490 206.607, 361.511 215.286, 375 228.413 C 396.165 249.011, 412.164 270.353, 429.033 300.489 C 437.061 314.832, 448 336.690, 447.999 338.387 C 447.999 339.482, 435.822 356.127, 427 367.094 C 399.614 401.135, 369.139 430.186, 343 447.166 C 334.104 452.945, 318.184 460.664, 308.421 463.933 C 283.276 472.352, 258.652 471.052, 238.745 460.256 C 233.177 457.236, 231.280 458.006, 235.539 461.557 C 245.558 469.910, 266.745 481.617, 278.500 485.296 C 308.479 494.678, 341.450 489.462, 374.500 470.108 C 380.550 466.565, 387.525 462.187, 390 460.379 C 402.822 451.010, 403.649 450.332, 418.952 436.643 C 429.681 427.046, 447.237 407.958, 460.488 391.483 C 464.683 386.267, 468.508 382, 468.989 382 C 469.470 382, 472.223 386.388, 475.107 391.750 C 477.991 397.113, 481.397 403.179, 482.675 405.230 C 483.954 407.282, 485 409.706, 485 410.617 C 485 413.580, 463.656 436.275, 447.474 450.519 C 428.940 466.834, 413.449 477.243, 392.500 487.458 C 376.405 495.306, 364.556 498.993, 347.678 501.406 C 337.397 502.876, 335.623 503.531, 337.980 504.988 C 342.020 507.484, 373.929 507.461, 386 504.953 C 405.420 500.918, 416.949 497.038, 432.448 489.323 C 444.090 483.528, 450.713 479.329, 464.257 469.159 C 490.349 449.567, 514.936 422.760, 535.946 391 C 539.402 385.775, 543.004 380.375, 543.949 379 C 546.915 374.688, 557.490 355.943, 563.054 345.135 C 566.406 338.623, 568.354 333.604, 568.294 331.635 C 568.185 328.051, 561.899 308.910, 555.280 292 C 551.340 281.937, 538.202 254.278, 536.042 251.500 C 535.615 250.950, 533.831 247.894, 532.080 244.709 C 528.409 238.035, 516.536 220.814, 510.573 213.514 C 497.657 197.701, 482.627 183.205, 466.383 170.894 C 454.001 161.509, 433.798 149.819, 420.500 144.345 C 417.200 142.987, 413.082 141.228, 411.349 140.438 C 409.616 139.647, 407.568 139, 406.799 139 C 406.029 139, 404.973 138.617, 404.450 138.149 C 403.204 137.034, 380.570 130.571, 371 128.599 C 355.951 125.497, 343.280 123.874, 328.057 123.100 C 310.952 122.229, 308.223 122.226, 304.809 123.072 M 306.500 129.949 C 302.100 131.502, 294 133.786, 288.500 135.025 C 278.675 137.238, 263.851 141.828, 253 146.016 C 249.975 147.183, 245.923 148.723, 243.996 149.438 C 239.876 150.966, 221.708 159.769, 214.407 163.774 C 206.425 168.153, 187.206 181.204, 179.500 187.478 C 157.960 205.014, 127 240.838, 127 248.225 C 127 250.700, 142.063 273.560, 143.598 273.414 C 144.094 273.367, 146.259 270.217, 148.408 266.414 C 155.582 253.722, 166.315 236.581, 171.835 229 C 203.096 186.067, 243.077 158.824, 285.500 151.550 C 298.582 149.306, 322.838 149.487, 335.502 151.923 C 355.208 155.712, 376.467 165.147, 392.500 177.219 C 402.378 184.657, 420.478 201.646, 429.027 211.505 C 445.962 231.033, 464.036 257.992, 478.477 285.266 C 479.565 287.320, 480.738 289, 481.084 289 C 481.744 289, 494.492 268.854, 497.378 263.250 C 498.298 261.462, 499.453 260, 499.944 260 C 501.155 260, 503.327 263.745, 513.119 282.718 L 521.489 298.937 519.494 302.711 C 516.243 308.865, 505.431 327.546, 503.649 330.090 C 501.784 332.754, 501.559 335.222, 502.952 337.764 C 504.180 340.005, 508.005 349.487, 511.518 359 C 512.229 360.925, 513.358 363.962, 514.027 365.750 C 514.695 367.538, 515.751 368.991, 516.371 368.980 C 516.992 368.970, 522 361.540, 527.500 352.470 C 538.929 333.621, 538.822 334.145, 534.080 320.230 C 525.239 294.286, 515.588 272.628, 504.123 253 C 488.147 225.650, 466.422 198.868, 446.685 182.189 C 432.011 169.789, 422.870 163.316, 407.174 154.208 C 401.683 151.021, 399.776 150.081, 388 144.757 C 371.753 137.412, 355.454 132.591, 334.500 128.933 C 320.097 126.419, 316.092 126.565, 306.500 129.949 M 281.105 208.019 C 257.659 212.961, 235.269 233.970, 226.721 259.046 C 223.716 267.859, 221 283.054, 221 291.045 C 221 305.252, 226.518 324.599, 234.413 338.073 C 242.466 351.817, 258.316 365.271, 272.226 370.170 C 274.945 371.127, 280.950 372.619, 285.570 373.485 C 293.112 374.898, 294.916 374.906, 303.235 373.561 C 318.194 371.143, 325.558 367.970, 337.500 358.794 C 346.849 351.611, 358.191 335.474, 363.008 322.500 C 367.622 310.074, 369.493 290.646, 367.390 277 C 365.392 264.038, 364.664 261.668, 358.934 249.500 C 350.329 231.225, 334.234 216.447, 316 210.080 C 308.668 207.520, 288.987 206.357, 281.105 208.019 M 320.500 236.945 C 316.701 238.500, 314.676 241.857, 314.220 247.355 C 313.817 252.225, 314.053 252.991, 316.993 256.339 C 322.470 262.577, 328.543 260.899, 331.981 252.198 C 333.730 247.772, 332.012 242.029, 327.905 238.574 C 324.666 235.848, 323.700 235.636, 320.500 236.945 M 104.448 291.750 C 103.130 294.879, 101.318 300.570, 97.279 314.268 C 96.707 316.206, 98.956 319.909, 108.838 333.299 C 114.027 340.330, 115.571 341.837, 116.527 340.799 C 117.185 340.084, 119.639 333.973, 121.981 327.218 L 126.239 314.936 122.508 309.718 C 120.456 306.848, 116.324 300.788, 113.326 296.250 C 110.327 291.712, 107.458 288, 106.950 288 C 106.442 288, 105.316 289.688, 104.448 291.750" stroke="none" fill="black" fill-rule="evenodd"/>
</svg>